# Blender v2.77 (sub 0) OBJ File: ''
# www.blender.org
mtllib torso_tie.mtl
o tie_studio.male_09_reference.smd.mesh_5
v 0.898400 0.946072 6.217056
v 0.900400 1.010672 6.183357
v 1.915000 1.697872 7.230755
v -1.484300 1.480072 7.508759
v -1.777700 1.706572 7.217457
v -0.908700 1.003972 6.432457
v -0.664300 0.878972 6.703758
v 0.190400 -0.292428 3.762157
v 0.704400 -0.676727 1.713154
v 0.432700 0.099173 3.610756
v 0.174800 0.083072 4.950256
v 0.330200 0.610972 4.943756
v 0.405300 0.367272 5.856258
v -0.015900 0.148072 5.693058
v -0.022900 0.335672 6.251255
v -0.419500 0.451972 5.855957
v -0.545800 0.830772 5.649456
v -0.342300 0.609172 4.943657
v -0.186500 0.170272 4.978653
v -0.469800 0.103972 3.610455
v -0.217300 -0.290426 3.761955
v -0.329900 -0.994028 1.802353
v 0.281800 -0.999928 1.803154
v 0.380300 -1.545228 -0.408848
v 0.912700 -1.208828 -0.408848
v 0.512600 0.649472 6.472958
v 0.530700 0.795372 5.551456
v 0.898400 0.946072 6.217056
v 1.495400 1.642072 7.337757
v 1.915000 1.697872 7.230755
v 1.410500 1.611172 7.331257
v 0.898400 0.946072 6.217056
v 0.459500 -1.909226 -3.443947
v 1.058800 -1.663628 -3.443947
v 0.509000 -2.114326 -6.697247
v 1.171100 -1.852125 -6.697247
v 0.518800 -2.260324 -8.727547
v 1.193200 -1.991525 -8.727547
v -0.011700 -2.262625 -10.404049
v -0.014400 -2.111924 -10.489746
v -1.221500 -1.991525 -8.727547
v -0.547900 -2.260324 -8.727547
v -0.538200 -2.114326 -6.697247
v -0.488500 -1.909226 -3.443947
v -0.395100 -1.555028 -0.408848
v -0.958500 -1.220728 -0.408848
v -0.776500 -0.665328 1.712353
v -1.087200 -1.663628 -3.443947
v -1.199500 -1.852126 -6.697247
v -1.704200 1.768572 7.199558
v -1.777700 1.706572 7.217457
v -1.410800 1.552372 7.494358
v 0.530700 0.795372 5.551456
v 0.330200 0.610972 4.943756
v 0.405300 0.772172 5.562157
v 0.898400 0.946072 6.217056
v 0.900400 1.010672 6.183357
v 1.410500 1.611172 7.331257
v 1.856600 1.768072 7.199158
v 0.514600 0.808072 6.483456
v -0.020900 0.639572 6.365658
v -0.835200 1.384072 6.665157
v -1.704200 1.768572 7.199558
v -1.410800 1.552372 7.494358
v -0.579800 0.940372 6.688858
v -0.419500 0.774972 5.561958
v -0.015900 0.848072 5.734856
v 0.174800 0.606972 4.944252
v 0.432700 0.099173 3.610756
v 0.190400 0.092972 3.615353
v 0.704400 -0.676727 1.713154
v 0.281800 -0.676528 1.717754
v 0.912700 -1.208828 -0.408848
v -0.217300 0.094972 3.615154
v -0.186500 0.606872 4.945053
v -0.908700 1.003972 6.432457
v -0.545800 0.830772 5.649456
v -0.342300 0.609172 4.943657
v -0.469800 0.103972 3.610455
v -0.329900 -0.670628 1.716953
v 0.380300 -1.220028 -0.414047
v 0.459500 -1.672126 -3.443947
v 1.058800 -1.663628 -3.443947
v 0.509000 -1.855226 -6.697247
v 1.171100 -1.852125 -6.697247
v 0.518800 -1.995824 -8.727547
v 1.193200 -1.991525 -8.727547
v -0.011700 -2.102725 -10.404049
v -0.014400 -2.111924 -10.489746
v -1.221500 -1.991525 -8.727547
v -0.547900 -1.995824 -8.727547
v -0.538200 -1.855226 -6.697247
v -0.488500 -1.672126 -3.443947
v -0.395100 -1.229828 -0.414047
v -0.958500 -1.220728 -0.408848
v -0.776500 -0.665328 1.712353
v -1.087200 -1.663628 -3.443947
v -1.199500 -1.852126 -6.697247
v 1.856600 1.768072 7.199158
v 1.915000 1.697872 7.230755
v 0.900400 1.010672 6.183357
v -1.484300 1.480072 7.508759
v -1.410800 1.552372 7.494358
v -1.777700 1.706572 7.217457
v 0.900400 1.010672 6.183357
v 0.898400 0.946072 6.217056
v 1.410500 1.611172 7.331257
v -0.835200 1.384072 6.665157
v -0.908700 1.003972 6.432457
v -1.704200 1.768572 7.199558
v 1.915000 1.697872 7.230755
v 1.856600 1.768072 7.199158
v 1.495400 1.642072 7.337757
v -1.777700 1.706572 7.217457
v -1.704200 1.768572 7.199558
v -0.908700 1.003972 6.432457
v 1.410500 1.611172 7.331257
v 1.495400 1.642072 7.337757
v 1.856600 1.768072 7.199158
v -1.410800 1.552372 7.494358
v -1.484300 1.480072 7.508759
v -0.579800 0.940372 6.688858
v 0.512600 0.649472 6.472958
v 0.514600 0.808072 6.483456
v 0.898400 0.946072 6.217056
v -0.664300 0.878972 6.703758
v -0.579800 0.940372 6.688858
v -1.484300 1.480072 7.508759
v 0.900400 1.010672 6.183357
v 0.898400 0.946072 6.217056
v 0.514600 0.808072 6.483456
v -0.835200 1.384072 6.665157
v -0.908700 1.003972 6.432457
v -1.410800 1.552372 7.494358
v 1.495400 1.642072 7.337757
v 1.410500 1.611172 7.331257
v 0.512600 0.649472 6.472958
v -1.484300 1.480072 7.508759
v -1.410800 1.552372 7.494358
v -0.908700 1.003972 6.432457
v 0.514600 0.808072 6.483456
v 0.512600 0.649472 6.472958
v 1.410500 1.611172 7.331257
v -0.835200 1.384072 6.665157
v -0.908700 1.003972 6.432457
v -0.579800 0.940372 6.688858
v 0.900400 1.010672 6.183357
v 0.898400 0.946072 6.217056
v 0.405300 0.772172 5.562157
v -0.664300 0.878972 6.703758
v -0.579800 0.940372 6.688858
v -0.908700 1.003972 6.432457
v 0.512600 0.649472 6.472958
v 0.514600 0.808072 6.483456
v -0.022900 0.335672 6.251255
v -0.579800 0.940372 6.688858
v -0.664300 0.878972 6.703758
v -0.020900 0.639572 6.365658
v -0.020900 0.639572 6.365658
v -0.022900 0.335672 6.251255
v 0.514600 0.808072 6.483456
v -0.022900 0.335672 6.251255
v -0.020900 0.639572 6.365658
v -0.664300 0.878972 6.703758
v -0.908700 1.003972 6.432457
v -0.835200 1.384072 6.665157
v -0.419500 0.774972 5.561958
vt 0.9030 -0.1620
vt 0.9030 -0.1620
vt 0.8963 -0.1504
vt 0.9370 -0.1489
vt 0.9397 -0.1514
vt 0.9347 -0.1620
vt 0.9284 -0.1582
vt 0.9143 -0.2023
vt 0.9057 -0.2386
vt 0.9075 -0.2023
vt 0.9157 -0.1828
vt 0.9093 -0.1818
vt 0.9093 -0.1699
vt 0.9193 -0.1719
vt 0.9193 -0.1591
vt 0.9284 -0.1699
vt 0.9320 -0.1719
vt 0.9284 -0.1818
vt 0.9221 -0.1828
vt 0.9293 -0.2023
vt 0.9226 -0.2023
vt 0.9243 -0.2386
vt 0.9135 -0.2386
vt 0.9123 -0.2736
vt 0.9032 -0.2736
vt 0.9093 -0.1582
vt 0.9057 -0.1729
vt 0.9030 -0.1620
vt 0.9000 -0.1477
vt 0.8963 -0.1504
vt 0.9000 -0.1477
vt 0.9030 -0.1620
vt 0.9109 -0.3145
vt 0.9012 -0.3145
vt 0.9101 -0.3488
vt 0.9003 -0.3488
vt 0.9095 -0.3760
vt 0.9003 -0.3760
vt 0.9193 -0.3926
vt 0.9193 -0.3946
vt 0.9374 -0.3759
vt 0.9275 -0.3760
vt 0.9267 -0.3488
vt 0.9259 -0.3145
vt 0.9254 -0.2736
vt 0.9345 -0.2736
vt 0.9311 -0.2386
vt 0.9356 -0.3145
vt 0.9374 -0.3488
vt 0.9397 -0.1514
vt 0.9397 -0.1514
vt 0.9370 -0.1489
vt 0.9057 -0.1729
vt 0.9093 -0.1818
vt 0.9093 -0.1699
vt 0.9030 -0.1620
vt 0.9030 -0.1620
vt 0.9000 -0.1477
vt 0.8963 -0.1504
vt 0.9093 -0.1582
vt 0.9193 -0.1591
vt 0.9347 -0.1620
vt 0.9397 -0.1514
vt 0.9370 -0.1489
vt 0.9284 -0.1582
vt 0.9284 -0.1699
vt 0.9193 -0.1719
vt 0.9157 -0.1828
vt 0.9075 -0.2023
vt 0.9143 -0.2023
vt 0.9057 -0.2386
vt 0.9135 -0.2386
vt 0.9032 -0.2736
vt 0.9226 -0.2023
vt 0.9221 -0.1828
vt 0.9347 -0.1620
vt 0.9320 -0.1719
vt 0.9284 -0.1818
vt 0.9293 -0.2023
vt 0.9243 -0.2386
vt 0.9123 -0.2736
vt 0.9109 -0.3145
vt 0.9012 -0.3145
vt 0.9101 -0.3488
vt 0.9003 -0.3488
vt 0.9095 -0.3760
vt 0.9003 -0.3760
vt 0.9193 -0.3926
vt 0.9193 -0.3946
vt 0.9374 -0.3759
vt 0.9275 -0.3760
vt 0.9267 -0.3488
vt 0.9259 -0.3145
vt 0.9254 -0.2736
vt 0.9345 -0.2736
vt 0.9311 -0.2386
vt 0.9356 -0.3145
vt 0.9374 -0.3488
vt 0.8963 -0.1504
vt 0.8963 -0.1504
vt 0.9030 -0.1620
vt 0.9370 -0.1489
vt 0.9370 -0.1489
vt 0.9397 -0.1514
vt 0.9030 -0.1620
vt 0.9030 -0.1620
vt 0.9000 -0.1477
vt 0.9347 -0.1620
vt 0.9347 -0.1620
vt 0.9397 -0.1514
vt 0.8963 -0.1504
vt 0.8963 -0.1504
vt 0.9000 -0.1477
vt 0.9397 -0.1514
vt 0.9397 -0.1514
vt 0.9347 -0.1620
vt 0.9000 -0.1477
vt 0.9000 -0.1477
vt 0.8963 -0.1504
vt 0.9370 -0.1489
vt 0.9370 -0.1489
vt 0.9284 -0.1582
vt 0.9093 -0.1582
vt 0.9093 -0.1582
vt 0.9030 -0.1620
vt 0.9284 -0.1582
vt 0.9284 -0.1582
vt 0.9370 -0.1489
vt 0.9030 -0.1620
vt 0.9030 -0.1620
vt 0.9093 -0.1582
vt 0.9347 -0.1620
vt 0.9347 -0.1620
vt 0.9370 -0.1489
vt 0.9000 -0.1477
vt 0.9000 -0.1477
vt 0.9093 -0.1582
vt 0.9370 -0.1489
vt 0.9370 -0.1489
vt 0.9347 -0.1620
vt 0.9093 -0.1582
vt 0.9093 -0.1582
vt 0.9000 -0.1477
vt 0.9347 -0.1620
vt 0.9347 -0.1620
vt 0.9284 -0.1582
vt 0.9030 -0.1620
vt 0.9030 -0.1620
vt 0.9093 -0.1699
vt 0.9284 -0.1582
vt 0.9284 -0.1582
vt 0.9347 -0.1620
vt 0.9093 -0.1582
vt 0.9093 -0.1582
vt 0.9193 -0.1591
vt 0.9284 -0.1582
vt 0.9284 -0.1582
vt 0.9193 -0.1591
vt 0.9193 -0.1591
vt 0.9193 -0.1591
vt 0.9093 -0.1582
vt 0.9193 -0.1591
vt 0.9193 -0.1591
vt 0.9284 -0.1582
vt 0.9347 -0.1620
vt 0.9347 -0.1620
vt 0.9284 -0.1699
vn 0.7764 -0.3096 -0.5490
vn -0.6063 -0.7948 0.0273
vn -0.6204 -0.7842 0.0151
vn -0.6318 -0.7711 0.0792
vn -0.5610 -0.8110 0.1660
vn 0.4837 -0.8167 0.3147
vn 0.6409 -0.7183 0.2706
vn 0.8762 -0.4223 0.2324
vn 0.5095 -0.8431 0.1721
vn 0.9523 -0.3040 -0.0273
vn 0.6617 -0.7463 0.0719
vn -0.1005 -0.9726 0.2096
vn -0.1059 -0.9399 0.3246
vn -0.7301 -0.6820 0.0422
vn -0.8857 -0.4120 -0.2140
vn -0.9401 -0.3408 0.0055
vn -0.6614 -0.7367 0.1407
vn -0.8499 -0.4764 0.2254
vn -0.4986 -0.8111 0.3060
vn -0.3289 -0.8907 0.3140
vn 0.3159 -0.9019 0.2945
vn 0.2774 -0.9435 0.1813
vn 0.5243 -0.8330 0.1767
vn 0.5986 -0.7718 0.2144
vn 0.8673 -0.4312 -0.2488
vn 0.6844 -0.7246 0.0805
vn 0.2965 -0.8740 0.3849
vn 0.2249 -0.8769 0.4248
vn 0.2965 -0.8741 0.3848
vn 0.2879 -0.8747 0.3898
vn 0.1980 -0.9751 0.1000
vn 0.3762 -0.9200 0.1098
vn 0.1880 -0.9798 0.0685
vn 0.3676 -0.9275 0.0674
vn 0.2054 -0.9787 0.0009
vn 0.3880 -0.9215 -0.0165
vn 0.0084 -0.7571 -0.6532
vn -0.0056 -0.4944 -0.8692
vn -0.3878 -0.9216 -0.0165
vn -0.2059 -0.9786 0.0006
vn -0.1880 -0.9798 0.0679
vn -0.1969 -0.9754 0.0992
vn -0.2522 -0.9505 0.1818
vn -0.5031 -0.8458 0.1774
vn -0.6030 -0.7332 0.3143
vn -0.3773 -0.9198 0.1082
vn -0.3685 -0.9273 0.0660
vn -0.3149 0.5883 0.7448
vn -0.1927 0.9683 -0.1588
vn -0.0349 0.9533 -0.3002
vn -0.1065 0.9868 -0.1217
vn -0.1902 0.9749 -0.1156
vn -0.5020 0.8590 -0.1001
vn -0.4212 0.8670 -0.2664
vn -0.3918 0.8752 -0.2837
vn -0.4424 0.8951 -0.0559
vn 0.0885 0.9947 0.0528
vn 0.7849 0.5447 0.2954
vn 0.4788 0.8638 0.1570
vn 0.5507 0.8056 0.2187
vn 0.7692 0.6284 0.1155
vn 0.1839 0.9731 -0.1387
vn -0.0007 0.9963 0.0863
vn -0.0063 0.9485 -0.3168
vn -0.0306 0.9276 -0.3722
vn -0.0120 0.9291 -0.3696
vn -0.0039 0.9522 -0.3054
vn 0.0026 0.9503 -0.3113
vn -0.0174 0.9804 -0.1961
vn 0.0222 0.9296 -0.3679
vn 0.0029 0.9483 -0.3174
vn 0.3908 0.9202 -0.0223
vn 0.3669 0.9282 -0.0619
vn 0.0277 0.9526 -0.3030
vn 0.0375 0.9289 -0.3684
vn 0.0113 0.9492 -0.3145
vn -0.0146 0.9799 -0.1991
vn -0.0077 0.9948 -0.1017
vn -0.0135 0.9947 -0.1017
vn -0.0026 0.9980 -0.0631
vn -0.0048 0.9980 -0.0636
vn -0.0034 0.9978 -0.0657
vn -0.0058 0.9978 -0.0663
vn 0.0026 0.9952 -0.0981
vn -0.0004 0.9943 -0.1067
vn 0.0056 0.9978 -0.0666
vn 0.0035 0.9978 -0.0658
vn 0.0024 0.9980 -0.0626
vn 0.0068 0.9949 -0.1010
vn 0.0014 0.9798 -0.2000
vn 0.0140 0.9801 -0.1981
vn 0.0145 0.9500 -0.3118
vn 0.0141 0.9948 -0.1007
vn 0.0052 0.9980 -0.0626
vn 0.6377 0.1944 -0.7453
vn -0.3631 0.5221 0.7717
vn -0.9302 0.1914 0.3132
vn -0.2545 0.5400 -0.8023
vn 0.1492 0.5064 0.8493
vn -0.4748 0.3261 -0.8175
vn -0.3394 0.9402 -0.0299
vn 0.5031 -0.3544 0.7882
vn -0.5838 0.0609 -0.8096
vn 0.4511 -0.4312 0.7814
vn -0.4162 -0.4100 -0.8116
vn -0.6742 0.4760 -0.5646
vn 0.2290 -0.7584 0.6102
vn -0.6302 0.5271 -0.5702
vn -0.6670 -0.0412 0.7439
vn -0.6203 -0.3188 0.7166
vn 0.7991 -0.2967 -0.5229
vn -0.3719 0.6693 0.6432
vn -0.3530 -0.0574 0.9339
vn 0.3620 -0.2821 0.8885
vn -0.0948 -0.3502 0.9319
vn 0.3383 -0.3335 0.8800
vn -0.7172 0.4594 -0.5239
usemtl None
s 1
f 1/1/1 2/2/1 3/3/1
f 4/4/2 5/5/3 6/6/4
f 7/7/5 4/4/2 6/6/4
f 8/8/6 9/9/7 10/10/8
f 11/11/9 8/8/6 10/10/8
f 11/11/9 10/10/8 12/12/10
f 12/12/10 13/13/11 11/11/9
f 13/13/11 14/14/12 11/11/9
f 13/13/11 15/15/13 14/14/12
f 15/15/13 16/16/14 14/14/12
f 15/15/13 7/7/5 16/16/14
f 7/7/5 6/6/4 16/16/14
f 17/17/15 16/16/14 6/6/4
f 17/17/15 18/18/16 16/16/14
f 18/18/16 19/19/17 16/16/14
f 19/19/17 18/18/16 20/20/18
f 21/21/19 19/19/17 20/20/18
f 21/21/19 20/20/18 22/22/20
f 23/23/21 21/21/19 22/22/20
f 23/23/21 22/22/20 24/24/22
f 25/25/23 23/23/21 24/24/22
f 23/23/21 25/25/23 9/9/7
f 8/8/6 23/23/21 9/9/7
f 21/21/19 23/23/21 8/8/6
f 11/11/9 21/21/19 8/8/6
f 21/21/19 11/11/9 19/19/17
f 19/19/17 11/11/9 14/14/12
f 16/16/14 19/19/17 14/14/12
f 26/26/24 15/15/13 13/13/11
f 13/13/11 12/12/10 27/27/25
f 28/28/26 13/13/11 27/27/25
f 28/28/26 26/26/24 13/13/11
f 29/29/27 26/26/24 28/28/26
f 30/30/28 29/29/27 28/28/26
f 29/29/29 31/31/30 32/32/30
f 25/25/23 24/24/22 33/33/31
f 34/34/32 25/25/23 33/33/31
f 34/34/32 33/33/31 35/35/33
f 36/36/34 34/34/32 35/35/33
f 36/36/34 35/35/33 37/37/35
f 38/38/36 36/36/34 37/37/35
f 38/38/36 37/37/35 39/39/37
f 40/40/38 38/38/36 39/39/37
f 40/40/38 39/39/37 41/41/39
f 39/39/37 42/42/40 41/41/39
f 41/41/39 42/42/40 43/43/41
f 37/37/35 43/43/41 42/42/40
f 37/37/35 35/35/33 43/43/41
f 35/35/33 44/44/42 43/43/41
f 35/35/33 33/33/31 44/44/42
f 33/33/31 45/45/43 44/44/42
f 33/33/31 24/24/22 45/45/43
f 24/24/22 22/22/20 45/45/43
f 45/45/43 22/22/20 46/46/44
f 46/46/44 22/22/20 47/47/45
f 22/22/20 20/20/18 47/47/45
f 39/39/37 37/37/35 42/42/40
f 44/44/42 45/45/43 46/46/44
f 44/44/42 46/46/44 48/48/46
f 49/49/47 44/44/42 48/48/46
f 49/49/47 43/43/41 44/44/42
f 49/49/47 41/41/39 43/43/41
f 50/50/48 51/51/48 52/52/48
f 53/53/49 54/54/50 55/55/51
f 53/53/49 55/55/51 56/56/52
f 57/57/53 58/58/54 59/59/55
f 57/57/53 60/60/56 58/58/54
f 55/55/51 60/60/56 57/57/53
f 55/55/51 61/61/57 60/60/56
f 62/62/58 63/63/59 64/64/60
f 62/62/58 64/64/60 65/65/61
f 66/66/62 62/62/58 65/65/61
f 66/66/62 65/65/61 61/61/57
f 67/67/63 66/66/62 61/61/57
f 67/67/63 61/61/57 55/55/51
f 68/68/64 67/67/63 55/55/51
f 68/68/64 55/55/51 54/54/50
f 54/54/50 69/69/65 68/68/64
f 69/69/65 70/70/66 68/68/64
f 69/69/65 71/71/67 70/70/66
f 71/71/67 72/72/68 70/70/66
f 71/71/67 73/73/69 72/72/68
f 70/70/66 72/72/68 74/74/70
f 70/70/66 74/74/70 68/68/64
f 75/75/71 68/68/64 74/74/70
f 67/67/63 68/68/64 75/75/71
f 67/67/63 75/75/71 66/66/62
f 76/76/72 66/66/62 77/77/73
f 66/66/62 78/78/74 77/77/73
f 66/66/62 75/75/71 78/78/74
f 79/79/75 78/78/74 75/75/71
f 79/79/75 75/75/71 74/74/70
f 80/80/76 79/79/75 74/74/70
f 80/80/76 74/74/70 72/72/68
f 81/81/77 80/80/76 72/72/68
f 81/81/77 72/72/68 73/73/69
f 82/82/78 81/81/77 73/73/69
f 82/82/78 73/73/69 83/83/79
f 84/84/80 82/82/78 83/83/79
f 84/84/80 83/83/79 85/85/81
f 86/86/82 84/84/80 85/85/81
f 86/86/82 85/85/81 87/87/83
f 88/88/84 86/86/82 87/87/83
f 88/88/84 87/87/83 89/89/85
f 90/90/86 88/88/84 89/89/85
f 91/91/87 86/86/82 88/88/84
f 90/90/86 91/91/87 88/88/84
f 92/92/88 91/91/87 90/90/86
f 91/91/87 92/92/88 86/86/82
f 92/92/88 84/84/80 86/86/82
f 92/92/88 93/93/89 84/84/80
f 93/93/89 82/82/78 84/84/80
f 93/93/89 94/94/90 82/82/78
f 94/94/90 81/81/77 82/82/78
f 94/94/90 80/80/76 81/81/77
f 95/95/91 80/80/76 94/94/90
f 96/96/92 80/80/76 95/95/91
f 96/96/92 79/79/75 80/80/76
f 95/95/91 94/94/90 93/93/89
f 97/97/93 95/95/91 93/93/89
f 97/97/93 93/93/89 98/98/94
f 93/93/89 92/92/88 98/98/94
f 92/92/88 90/90/86 98/98/94
f 99/99/95 100/100/95 101/101/95
f 102/102/96 103/103/96 104/104/96
f 105/105/97 106/106/97 107/107/97
f 108/108/98 109/109/98 110/110/98
f 111/111/99 112/112/99 113/113/99
f 114/114/100 115/115/100 116/116/100
f 117/117/101 118/118/101 119/119/101
f 120/120/102 121/121/102 122/122/102
f 123/123/103 124/124/103 125/125/103
f 126/126/104 127/127/104 128/128/104
f 129/129/105 130/130/105 131/131/105
f 132/132/106 133/133/106 134/134/106
f 135/135/107 136/136/107 137/137/107
f 138/138/108 139/139/108 140/140/108
f 141/141/109 142/142/109 143/143/109
f 144/144/110 145/145/110 146/146/110
f 147/147/111 148/148/111 149/149/111
f 150/150/112 151/151/112 152/152/112
f 153/153/113 154/154/113 155/155/113
f 156/156/114 157/157/114 158/158/114
f 159/159/115 160/160/115 161/161/115
f 162/162/116 163/163/116 164/164/116
f 165/165/117 166/166/117 167/167/117
