# Wavefront OBJ exported by MilkShape 3D

v -5.378906 -0.481934 12.875000
v -5.378906 -0.460205 12.929688
v -5.371094 -0.393311 12.953125
v -5.398438 -0.404541 12.859375
v -5.453125 -0.441406 12.640625
v -5.449219 -0.527344 12.640625
v -5.390625 -0.380127 12.890625
v -5.355469 -0.145874 12.937500
v -5.371094 -0.159668 12.851563
v -5.441406 -0.205200 12.601563
v -5.496094 -0.512207 12.257813
v -5.496094 -0.276367 12.218750
v -5.484375 -0.605469 12.273438
v -5.703125 -0.711914 11.078125
v -5.253906 3.761719 12.250000
v -5.277344 3.748047 12.171875
v -5.378906 3.707031 11.906250
v -5.441406 3.642578 11.515625
v -5.742188 -0.477539 11.046875
v -5.679688 -0.827637 11.101563
v -6.660156 -1.378906 7.054688
v -6.660156 -1.299805 7.046875
v -5.265625 4.429688 12.125000
v -5.296875 4.367188 12.046875
v -5.296875 4.410156 12.015625
v -5.390625 4.390625 11.789063
v -6.628906 -1.080078 7.000000
v -5.636719 3.437500 10.351563
v -5.453125 4.335938 11.406250
v -5.648438 4.148438 10.218750
v -6.808594 -1.444336 6.210938
v -6.746094 -1.224609 6.160156
v -6.816406 -1.514648 6.222656
v -5.285156 4.535156 12.015625
v -5.378906 4.511719 11.757813
v -5.453125 4.453125 11.382813
v -5.640625 4.242188 10.195313
v -6.566406 3.517578 6.187500
v -6.667969 2.769531 6.328125
v -6.785156 2.623047 5.500000
v -6.996094 -1.540039 5.660156
v -6.953125 -1.316406 5.617188
v -6.871094 2.523438 4.921875
v -6.992188 -1.603516 5.667969
v -6.671875 3.380859 5.347656
v -6.746094 3.287109 4.773438
v -6.546875 3.568359 6.171875
v -6.660156 3.419922 5.335938
v -6.742188 3.318359 4.765625
v -7.058594 -1.611328 5.265625
v -7.035156 -1.396484 5.179688
v -6.878906 2.437500 4.472656
v -6.777344 3.087891 4.347656
v -7.046875 -1.677734 5.242188
v -6.742188 3.224609 4.312500
v -6.765625 3.179688 4.375000
v -6.765625 3.218750 4.429688
v -7.058594 -1.611328 5.136719
v -7.066406 -1.580078 5.218750
v -7.035156 -1.413086 5.093750
v -6.871094 2.417969 4.375000
v -6.773438 3.054688 4.250000
v -5.378906 -0.481934 12.875000
v -5.371094 -0.393311 12.953125
v -5.378906 -0.460205 12.929688
v -5.390625 -0.405029 12.851563
v -5.453125 -0.442139 12.640625
v -5.449219 -0.527344 12.640625
v -5.378906 -0.381348 12.882813
v -5.355469 -0.145874 12.937500
v -5.367188 -0.159912 12.851563
v -5.390625 -0.211060 12.585938
v -5.492188 -0.512207 12.257813
v -5.441406 -0.282471 12.203125
v -5.484375 -0.605469 12.273438
v -5.699219 -0.712891 11.078125
v -5.253906 3.761719 12.250000
v -5.273438 3.748047 12.171875
v -5.328125 3.703125 11.906250
v -5.390625 3.636719 11.507813
v -5.683594 -0.483887 11.046875
v -5.679688 -0.827637 11.101563
v -6.660156 -1.378906 7.054688
v -6.660156 -1.299805 7.046875
v -5.265625 4.429688 12.125000
v -5.292969 4.367188 12.046875
v -5.292969 4.410156 12.015625
v -5.386719 4.390625 11.789063
v -6.578125 -1.085938 6.984375
v -5.585938 3.431641 10.328125
v -5.453125 4.335938 11.406250
v -5.640625 4.148438 10.218750
v -6.804688 -1.446289 6.210938
v -6.691406 -1.231445 6.156250
v -6.816406 -1.514648 6.222656
v -5.285156 4.535156 12.015625
v -5.378906 4.511719 11.757813
v -5.453125 4.453125 11.382813
v -5.640625 4.242188 10.195313
v -6.558594 3.517578 6.187500
v -6.609375 2.761719 6.328125
v -6.730469 2.617188 5.484375
v -6.992188 -1.541016 5.660156
v -6.898438 -1.324219 5.605469
v -6.816406 2.515625 4.917969
v -6.992188 -1.603516 5.667969
v -6.667969 3.380859 5.347656
v -6.742188 3.287109 4.773438
v -6.546875 3.568359 6.171875
v -6.660156 3.419922 5.335938
v -6.742188 3.318359 4.765625
v -7.054688 -1.612305 5.265625
v -7.035156 -1.398438 5.171875
v -6.871094 2.437500 4.472656
v -6.773438 3.085938 4.347656
v -7.046875 -1.677734 5.242188
v -6.742188 3.224609 4.312500
v -6.761719 3.181641 4.375000
v -6.765625 3.218750 4.429688
v -7.058594 -1.611328 5.136719
v -7.058594 -1.581055 5.210938
v -7.035156 -1.413086 5.093750
v -6.871094 2.417969 4.375000
v -6.773438 3.054688 4.250000
# 124 vertices

vt 0.604004 0.975235
vt 0.602539 0.980972
vt 0.595215 0.986137
vt 0.594727 0.972534
vt 0.594727 0.941772
vt 0.604492 0.941772
vt 0.592285 0.977829
vt 0.568848 0.987068
vt 0.568848 0.977859
vt 0.568848 0.941772
vt 0.594727 0.895203
vt 0.568848 0.895203
vt 0.605469 0.895203
vt 0.593750 0.750000
vt 0.100342 0.989677
vt 0.100342 0.978729
vt 0.100342 0.941772
vt 0.100342 0.895203
vt 0.568848 0.750000
vt 0.607422 0.750000
vt 0.603516 0.250000
vt 0.593750 0.250000
vt 0.014320 0.988792
vt 0.020447 0.976898
vt 0.015282 0.974258
vt 0.014877 0.941772
vt 0.568848 0.250000
vt 0.100342 0.750000
vt 0.014297 0.895203
vt 0.012474 0.750000
vt 0.593750 0.147949
vt 0.568848 0.147949
vt 0.602051 0.147949
vt 0.000000 0.977539
vt 0.000000 0.941772
vt 0.000000 0.895203
vt 0.000000 0.750000
vt 0.006195 0.250000
vt 0.100342 0.250000
vt 0.100342 0.147949
vt 0.593750 0.077637
vt 0.568848 0.077637
vt 0.100342 0.077637
vt 0.602051 0.077637
vt 0.005081 0.147949
vt 0.004318 0.077637
vt 0.000000 0.250000
vt 0.000000 0.147949
vt 0.000000 0.077637
vt 0.593750 0.030273
vt 0.568848 0.024902
vt 0.100342 0.024902
vt 0.017197 0.024902
vt 0.601563 0.025391
vt 0.000000 0.023926
vt 0.006943 0.030273
vt 0.003885 0.037109
vt 0.590332 0.014648
vt 0.588379 0.024902
vt 0.568848 0.014648
vt 0.100342 0.012207
vt 0.018219 0.012207
vt 0.645020 0.987968
vt 0.650391 0.994274
vt 0.645508 0.991333
vt 0.650879 0.986282
vt 0.650879 0.969711
vt 0.644043 0.969879
vt 0.651367 0.989395
vt 0.666992 0.994743
vt 0.666992 0.989357
vt 0.666504 0.970062
vt 0.650879 0.942352
vt 0.666504 0.942413
vt 0.644043 0.942413
vt 0.650879 0.856934
vt 0.937500 0.996059
vt 0.937500 0.989655
vt 0.937500 0.969833
vt 0.937500 0.942169
vt 0.666504 0.856934
vt 0.642090 0.856934
vt 0.640137 0.562500
vt 0.645508 0.562500
vt 0.985840 0.996294
vt 0.982422 0.989189
vt 0.985840 0.987747
vt 0.987305 0.969818
vt 0.661133 0.562500
vt 0.937500 0.856689
vt 0.987793 0.942169
vt 0.988770 0.856689
vt 0.645508 0.501709
vt 0.661133 0.501709
vt 0.640625 0.501709
vt 0.994629 0.989967
vt 0.995117 0.969986
vt 0.996094 0.942230
vt 0.996094 0.856689
vt 0.992188 0.562256
vt 0.937500 0.562256
vt 0.937500 0.501709
vt 0.645508 0.460449
vt 0.661133 0.460449
vt 0.937500 0.460449
vt 0.640625 0.460449
vt 0.992676 0.501709
vt 0.992676 0.460449
vt 0.996094 0.562256
vt 0.996094 0.501709
vt 0.996094 0.460449
vt 0.645508 0.432617
vt 0.661133 0.428711
vt 0.937500 0.428711
vt 0.985352 0.427734
vt 0.640625 0.429199
vt 0.995117 0.427246
vt 0.991211 0.431152
vt 0.992676 0.436035
vt 0.647461 0.423340
vt 0.648438 0.429199
vt 0.661133 0.423340
vt 0.937500 0.420898
vt 0.984375 0.420410
# 124 texture coordinates

vn -0.952941 -0.121569 0.286275
vn -0.992157 0.137255 -0.050980
vn -0.952941 -0.011765 0.309804
vn -0.968627 0.050980 0.247059
vn -0.984314 0.019608 0.160784
vn -0.992157 -0.074510 0.121569
vn -0.968627 0.098039 0.215686
vn -0.984314 0.058824 0.176471
vn -0.952941 0.074510 0.286275
vn -0.984314 0.050980 0.176471
vn -0.984314 -0.011765 0.152941
vn -0.984314 0.035294 0.184314
vn -0.968627 -0.137255 0.192157
vn -0.968627 -0.098039 0.231373
vn -0.945098 0.074510 0.309804
vn -0.945098 0.074510 0.325490
vn -0.968627 0.058824 0.247059
vn -0.984314 0.043137 0.168627
vn -0.976471 0.050980 0.200000
vn -0.952941 -0.152941 0.254902
vn -0.976471 0.003922 0.215686
vn -0.976471 0.027451 0.200000
vn -0.937255 0.066667 0.349020
vn -0.960784 0.035294 0.270588
vn -0.937255 0.066667 0.341176
vn -0.976471 0.035294 0.207843
vn -0.976471 0.043137 0.207843
vn -0.976471 0.058824 0.215686
vn -0.984314 0.043137 0.152941
vn -0.945098 0.239216 0.207843
vn -0.952941 0.027451 0.301961
vn -0.937255 0.098039 0.341176
vn -0.952941 0.168627 0.247059
vn -0.984314 0.035294 0.152941
vn -0.960784 0.215686 0.176471
vn -0.968627 0.121569 0.200000
vn -0.992157 0.035294 0.137255
vn -0.960784 0.168627 0.215686
vn -0.976471 0.074510 0.192157
vn -0.984314 0.058824 0.160784
vn -0.968627 -0.176471 0.168627
vn -0.984314 0.168627 0.098039
vn -0.984314 0.176471 0.074510
vn -0.670588 0.741176 -0.035294
vn -0.921569 0.388235 0.058824
vn -0.952941 0.294118 0.035294
vn -0.992157 0.043137 0.137255
vn -0.984314 0.074510 0.145098
vn -1.000000 0.050980 0.058824
vn -0.984314 0.152941 -0.027451
vn -0.945098 -0.333333 0.035294
vn -0.882353 0.443137 -0.145098
vn -0.992157 0.105882 -0.019608
vn -1.000000 -0.019608 -0.011765
vn -0.992157 0.003922 -0.113725
vn -0.992157 0.113725 -0.011765
vn -1.000000 0.035294 -0.050980
vn -0.992157 0.043137 -0.098039
vn -0.984314 0.137255 -0.098039
vn 0.960784 0.058824 -0.278431
vn 0.992157 -0.035294 -0.145098
vn 0.992157 -0.137255 0.050980
vn 0.976471 -0.145098 -0.168627
vn 0.968627 -0.200000 -0.129412
vn 0.992157 0.058824 -0.105882
vn 0.984314 -0.082353 -0.152941
vn 0.992157 -0.050980 -0.121569
vn 0.984314 -0.050980 -0.145098
vn 0.992157 -0.043137 -0.121569
vn 0.984314 -0.145098 -0.129412
vn 0.984314 -0.058824 -0.176471
vn 0.976471 0.090196 -0.184314
vn 0.976471 -0.043137 -0.207843
vn 0.976471 -0.050980 -0.192157
vn 0.976471 -0.050980 -0.200000
vn 0.984314 -0.035294 -0.152941
vn 0.984314 -0.035294 -0.168627
vn 0.976471 -0.074510 -0.192157
vn 0.960784 0.105882 -0.247059
vn 0.976471 -0.082353 -0.207843
vn 0.945098 -0.270588 -0.160784
vn 0.968627 -0.043137 -0.254902
vn 0.968627 -0.027451 -0.239216
vn 0.960784 -0.019608 -0.286275
vn 0.976471 0.027451 -0.223529
vn 0.976471 -0.050980 -0.207843
vn 0.976471 -0.043137 -0.215686
vn 0.984314 0.050980 -0.168627
vn 0.976471 0.035294 -0.207843
vn 0.905882 -0.388235 -0.168627
vn 0.976471 -0.058824 -0.192157
vn 0.945098 -0.176471 -0.286275
vn 0.945098 -0.043137 -0.325490
vn 0.968627 -0.074510 -0.247059
vn 0.984314 -0.050980 -0.160784
vn 0.976471 -0.098039 -0.192157
vn 0.976471 -0.050980 -0.215686
vn 0.976471 -0.043137 -0.223529
vn 0.992157 -0.027451 -0.137255
vn 0.929412 -0.301961 -0.207843
vn 0.960784 -0.098039 -0.254902
vn 0.992157 0.035294 -0.145098
vn 0.984314 -0.098039 -0.113725
vn 0.992157 -0.105882 -0.090196
vn 0.898039 0.396078 -0.184314
vn 0.984314 -0.113725 -0.113725
vn 0.992157 0.050980 -0.082353
vn 0.992157 -0.058824 -0.129412
vn 0.968627 -0.105882 -0.239216
vn 0.984314 -0.074510 -0.160784
vn 0.992157 -0.137255 -0.035294
vn 1.000000 -0.066667 0.011765
vn 0.929412 -0.356863 0.113725
vn 0.992157 0.098039 -0.019608
vn 0.992157 -0.090196 0.019608
vn 0.992157 -0.105882 -0.011765
vn 1.000000 -0.043137 0.011765
vn 1.000000 -0.058824 0.003922
vn 0.992157 -0.137255 0.035294
# 119 normals

g Card
s 1
f 1/1/1 2/2/2 3/3/3
f 1/1/1 3/3/3 4/4/4
f 1/1/1 4/4/4 5/5/5
f 1/1/1 5/5/5 6/6/6
f 3/3/3 7/7/7 4/4/4
f 7/7/7 3/3/3 8/8/8
f 8/8/8 9/9/9 7/7/7
f 4/4/4 7/7/7 9/9/9
f 4/4/4 9/9/9 10/10/10
f 5/5/5 4/4/4 10/10/10
f 6/6/6 5/5/5 11/11/11
f 12/12/12 11/11/11 5/5/5
f 5/5/5 10/10/10 12/12/12
f 11/11/11 13/13/13 6/6/6
f 14/14/14 11/11/11 12/12/12
f 13/13/13 11/11/11 14/14/14
f 9/9/9 8/8/8 15/15/15
f 15/15/15 16/16/16 9/9/9
f 17/17/17 10/10/10 9/9/9
f 9/9/9 16/16/16 17/17/17
f 10/10/10 17/17/17 18/18/18
f 18/18/18 12/12/12 10/10/10
f 12/12/12 19/19/19 14/14/14
f 19/19/19 12/12/12 18/18/18
f 14/14/14 20/20/20 13/13/13
f 21/21/21 20/20/20 14/14/14
f 14/14/14 22/22/22 21/21/21
f 22/22/22 14/14/14 19/19/19
f 16/16/16 15/15/15 23/23/23
f 23/23/23 24/24/24 16/16/16
f 17/17/17 16/16/16 25/25/25
f 16/16/16 24/24/24 25/25/25
f 17/17/17 25/25/25 26/26/26
f 18/18/18 17/17/17 26/26/26
f 25/25/25 24/24/24 23/23/23
f 19/19/19 27/27/27 22/22/22
f 18/18/18 28/28/28 19/19/19
f 27/27/27 19/19/19 28/28/28
f 26/26/26 29/29/29 18/18/18
f 18/18/18 29/29/29 30/30/22
f 30/30/22 28/28/28 18/18/18
f 21/21/21 22/22/22 31/31/30
f 32/32/19 31/31/30 22/22/22
f 22/22/22 27/27/27 32/32/19
f 31/31/30 33/33/31 21/21/21
f 23/23/23 34/34/32 25/25/25
f 35/35/33 26/26/26 25/25/25
f 25/25/25 34/34/32 35/35/33
f 36/36/34 29/29/29 26/26/26
f 26/26/26 35/35/33 36/36/34
f 37/37/35 30/30/22 29/29/29
f 29/29/29 36/36/34 37/37/35
f 28/28/28 30/30/22 38/38/36
f 38/38/36 30/30/22 37/37/35
f 38/38/36 39/39/28 28/28/28
f 28/28/28 39/39/28 27/27/27
f 27/27/27 39/39/28 40/40/37
f 40/40/37 32/32/19 27/27/27
f 33/33/31 31/31/30 41/41/38
f 42/42/39 41/41/38 31/31/30
f 31/31/30 32/32/19 42/42/39
f 32/32/19 40/40/37 43/43/40
f 43/43/40 42/42/39 32/32/19
f 41/41/38 44/44/41 33/33/31
f 39/39/28 38/38/36 45/45/42
f 45/45/42 40/40/37 39/39/28
f 40/40/37 45/45/42 46/46/43
f 46/46/43 43/43/40 40/40/37
f 37/37/35 47/47/44 38/38/36
f 38/38/36 47/47/44 48/48/45
f 48/48/45 45/45/42 38/38/36
f 45/45/42 48/48/45 49/49/46
f 49/49/46 46/46/43 45/45/42
f 44/44/41 41/41/38 50/50/47
f 51/51/48 41/41/38 42/42/39
f 51/51/48 50/50/47 41/41/38
f 52/52/49 51/51/48 42/42/39
f 42/42/39 43/43/40 52/52/49
f 53/53/50 52/52/49 43/43/40
f 53/53/50 43/43/40 46/46/43
f 50/50/47 54/54/51 44/44/41
f 46/46/43 49/49/46 55/55/52
f 56/56/53 53/53/50 46/46/43
f 57/57/54 46/46/43 55/55/52
f 57/57/54 56/56/53 46/46/43
f 53/53/50 56/56/53 55/55/52
f 56/56/53 57/57/54 55/55/52
f 58/58/55 54/54/51 50/50/47
f 50/50/47 59/59/56 58/58/55
f 51/51/48 59/59/56 50/50/47
f 59/59/56 51/51/48 60/60/57
f 60/60/57 51/51/48 52/52/49
f 61/61/58 52/52/49 53/53/50
f 52/52/49 61/61/58 60/60/57
f 55/55/52 62/62/59 53/53/50
f 53/53/50 62/62/59 61/61/58
f 60/60/57 58/58/55 59/59/56
f 63/63/60 64/64/61 65/65/62
f 63/63/60 66/66/63 64/64/61
f 63/63/60 67/67/64 66/66/63
f 63/63/60 68/68/65 67/67/64
f 66/66/63 69/69/66 64/64/61
f 70/70/67 64/64/61 69/69/66
f 69/69/66 71/71/68 70/70/67
f 71/71/68 69/69/66 66/66/63
f 72/72/69 71/71/68 66/66/63
f 67/67/64 72/72/69 66/66/63
f 73/73/70 67/67/64 68/68/65
f 74/74/71 72/72/69 67/67/64
f 67/67/64 73/73/70 74/74/71
f 68/68/65 75/75/72 73/73/70
f 74/74/71 73/73/70 76/76/73
f 76/76/73 73/73/70 75/75/72
f 77/77/74 70/70/67 71/71/68
f 71/71/68 78/78/75 77/77/74
f 79/79/76 78/78/75 71/71/68
f 71/71/68 72/72/69 79/79/76
f 72/72/69 74/74/71 80/80/77
f 80/80/77 79/79/76 72/72/69
f 76/76/73 81/81/78 74/74/71
f 80/80/77 74/74/71 81/81/78
f 75/75/72 82/82/79 76/76/73
f 76/76/73 82/82/79 83/83/80
f 81/81/78 76/76/73 84/84/81
f 83/83/80 84/84/81 76/76/73
f 85/85/82 77/77/74 78/78/75
f 78/78/75 86/86/83 85/85/82
f 79/79/76 87/87/84 78/78/75
f 87/87/84 86/86/83 78/78/75
f 79/79/76 88/88/85 87/87/84
f 88/88/85 79/79/76 80/80/77
f 85/85/82 86/86/83 87/87/84
f 84/84/81 89/89/86 81/81/78
f 81/81/78 90/90/87 80/80/77
f 90/90/87 81/81/78 89/89/86
f 80/80/77 91/91/88 88/88/85
f 80/80/77 90/90/87 92/92/89
f 92/92/89 91/91/88 80/80/77
f 93/93/90 84/84/81 83/83/80
f 94/94/91 89/89/86 84/84/81
f 84/84/81 93/93/90 94/94/91
f 83/83/80 95/95/92 93/93/90
f 87/87/84 96/96/93 85/85/82
f 97/97/94 96/96/93 87/87/84
f 87/87/84 88/88/85 97/97/94
f 98/98/95 97/97/94 88/88/85
f 88/88/85 91/91/88 98/98/95
f 99/99/96 98/98/95 91/91/88
f 91/91/88 92/92/89 99/99/96
f 100/100/97 92/92/89 90/90/87
f 99/99/96 92/92/89 100/100/97
f 90/90/87 101/101/98 100/100/97
f 89/89/86 101/101/98 90/90/87
f 89/89/86 94/94/91 102/102/99
f 102/102/99 101/101/98 89/89/86
f 103/103/100 93/93/90 95/95/92
f 104/104/101 94/94/91 93/93/90
f 93/93/90 103/103/100 104/104/101
f 94/94/91 104/104/101 105/105/91
f 105/105/91 102/102/99 94/94/91
f 95/95/92 106/106/102 103/103/100
f 101/101/98 102/102/99 107/107/103
f 107/107/103 100/100/97 101/101/98
f 102/102/99 105/105/91 108/108/104
f 108/108/104 107/107/103 102/102/99
f 100/100/97 109/109/105 99/99/96
f 100/100/97 107/107/103 110/110/106
f 110/110/106 109/109/105 100/100/97
f 107/107/103 108/108/104 111/111/107
f 111/111/107 110/110/106 107/107/103
f 112/112/108 103/103/100 106/106/102
f 113/113/109 103/103/100 112/112/108
f 113/113/109 104/104/101 103/103/100
f 114/114/110 105/105/91 104/104/101
f 104/104/101 113/113/109 114/114/110
f 105/105/91 114/114/110 115/115/111
f 108/108/104 105/105/91 115/115/111
f 106/106/102 116/116/112 112/112/108
f 117/117/113 111/111/107 108/108/104
f 108/108/104 115/115/111 118/118/112
f 117/117/113 108/108/104 119/119/114
f 119/119/114 108/108/104 118/118/112
f 117/117/113 118/118/112 115/115/111
f 118/118/112 117/117/113 119/119/114
f 112/112/108 116/116/112 120/120/115
f 113/113/109 112/112/108 121/121/116
f 120/120/115 121/121/116 112/112/108
f 122/122/117 113/113/109 121/121/116
f 114/114/110 113/113/109 122/122/117
f 115/115/111 114/114/110 123/123/118
f 122/122/117 123/123/118 114/114/110
f 115/115/111 124/124/119 117/117/113
f 123/123/118 124/124/119 115/115/111
f 121/121/116 120/120/115 122/122/117
# 194 triangles in group

# 194 triangles total

