# Wavefront OBJ exported by MilkShape 3D

v 2.996305 -0.537607 -0.041409
v 0.730783 -3.046432 -0.015263
v 0.319836 -3.223854 0.243618
v -0.889555 -2.806863 1.450504
v -0.001903 -2.936846 1.368404
v 0.022062 -3.038832 0.932796
v 2.671630 -1.288748 -0.148754
v 3.064877 -0.791575 1.751545
v 3.081909 -0.633217 0.984493
v 0.943333 -2.832335 0.893078
v 1.170408 -2.619528 -0.132954
v 2.379961 -1.702910 -0.186008
v 2.209135 -1.980009 0.837223
v 0.931387 -2.799291 1.451077
v 1.891913 -2.261522 1.590725
v 2.755561 -1.366112 0.929241
v 2.653847 -1.463056 1.706295
v -0.001256 -3.235527 0.259754
v -0.900875 -2.839986 0.892506
v -0.686011 -3.052327 -0.015705
v -1.129076 -2.629135 -0.133678
v -0.288910 -3.246201 0.251110
# 22 vertices

vt 0.993258 -1.309838
vt 0.994439 -1.492826
vt 0.849230 -1.298033
vt 0.385269 -1.331088
vt 0.492700 -1.308658
vt 0.307351 -1.378311
vt 0.438394 -1.491645
vt 0.256587 -1.386575
vt 0.273115 -1.509353
vt 0.106656 -1.531784
vt 0.123183 -1.628590
vt 0.281379 -1.587271
vt 0.443116 -1.589632
vt 0.706382 -1.476298
vt 0.759507 -1.290949
vt 0.852772 -1.488103
vt 0.832702 -1.625049
vt 0.972008 -1.628590
vt 0.637909 -1.610882
vt 0.204642 -1.390117
vt 0.007488 -1.371228
vt 0.117281 -1.364144
# 22 texture coordinates

vn 0.917871 -0.380727 -0.112072
vn 0.901831 -0.428167 -0.058089
vn 0.858059 -0.506500 -0.084808
vn 0.606933 -0.443138 0.659743
vn 0.637531 -0.741517 0.209059
vn 0.454581 -0.794115 0.403407
vn 0.414263 -0.904875 0.097918
vn 0.020020 -0.916221 0.400173
vn 0.002756 -0.981439 0.191754
vn -0.261427 -0.938881 0.223961
vn -0.167799 -0.975590 0.141659
vn 0.000110 -0.973669 0.227965
vn 0.359469 -0.931048 0.062705
vn 0.663688 -0.746860 -0.041458
vn 0.666496 -0.742947 -0.061748
vn 0.819562 -0.572831 -0.013502
vn 0.838147 -0.545432 -0.003798
vn 0.852238 -0.515775 -0.087559
vn 0.662096 -0.749290 -0.013939
vn -0.445649 -0.799240 0.403253
vn -0.649214 -0.703248 0.289763
vn -0.637492 -0.505288 0.581626
# 22 normals

g eyepatch
s 1
f 1/1/1 9/2/2 7/3/3
f 2/4/4 11/5/5 3/6/6
f 10/7/7 3/6/6 11/5/5
f 3/6/6 10/7/7 18/8/8
f 6/9/9 18/8/8 10/7/7
f 6/9/9 19/10/10 18/8/8
f 19/10/10 6/9/9 4/11/11
f 5/12/12 4/11/11 6/9/9
f 5/12/12 6/9/9 14/13/13
f 10/7/7 14/13/13 6/9/9
f 10/7/7 13/14/14 14/13/13
f 13/14/14 10/7/7 12/15/15
f 12/15/15 7/3/3 13/14/14
f 16/16/16 13/14/14 7/3/3
f 16/16/16 7/3/3 9/2/2
f 16/16/16 9/2/2 17/17/17
f 8/18/18 17/17/17 9/2/2
f 11/5/5 12/15/15 10/7/7
f 15/19/19 14/13/13 13/14/14
f 13/14/14 16/16/16 15/19/19
f 17/17/17 15/19/19 16/16/16
f 22/20/20 18/8/8 19/10/10
f 19/10/10 21/21/21 22/20/20
f 22/20/20 21/21/21 20/22/22
# 24 triangles in group

# 24 triangles total

