# Wavefront OBJ exported by MilkShape 3D

v -1.008440 -4.672559 0.214794
v -0.891950 -4.673667 0.240009
v -0.812809 -4.677563 0.329006
v -1.117700 -4.674623 0.262325
v -0.801150 -4.682743 0.447666
v -1.178035 -4.679111 0.365131
v -1.166417 -4.684292 0.483791
v -0.861485 -4.687224 0.550472
v -0.970745 -4.689310 0.598408
v -1.087234 -4.688182 0.572796
v -1.921545 -4.055234 1.485027
v -1.805096 -4.056344 1.510235
v -1.725914 -4.060255 1.599651
v -2.030805 -4.057322 1.532970
v -1.714255 -4.065420 1.717899
v -2.091140 -4.061806 1.635769
v -2.079522 -4.066967 1.754025
v -1.774590 -4.069901 1.820705
v -1.883850 -4.071988 1.868641
v -2.000340 -4.070877 1.843433
v -2.427725 -4.007485 0.392254
v -2.544214 -4.006373 0.367046
v -2.623357 -4.002483 0.278034
v -2.318465 -4.005435 0.345135
v -2.258131 -4.000936 0.241924
v -2.635015 -3.997302 0.159382
v -2.574680 -3.992816 0.056576
v -2.465420 -3.990733 0.008640
v -2.269748 -3.995752 0.123264
v -2.348931 -3.991859 0.034260
# 30 vertices

vt 0.099116 -1.781027
vt 0.342569 -1.963590
vt 0.646923 -1.969558
vt 0.896095 -1.794817
vt 0.009819 -1.489789
vt 0.995065 -1.506535
vt 0.108676 -1.201477
vt 0.905779 -1.215268
vt 0.357955 -1.026743
vt 0.662569 -1.031659
vt 0.094438 -1.773586
vt 0.334310 -1.961573
vt 0.638377 -1.972947
vt 0.890983 -1.801773
vt 0.010411 -1.480770
vt 0.994868 -1.516350
vt 0.114191 -1.195295
vt 0.910856 -1.223539
vt 0.366812 -1.024113
vt 0.670987 -1.035527
vt 0.114606 -1.194152
vt 0.911437 -1.221586
# 22 texture coordinates

vn -0.000080 -0.999048 -0.043626
# 1 normals

g goggle_lenses
s 1
f 4/1/1 1/2/1 2/3/1
f 3/4/1 4/1/1 2/3/1
f 6/5/1 4/1/1 3/4/1
f 5/6/1 6/5/1 3/4/1
f 7/7/1 6/5/1 5/6/1
f 8/8/1 7/7/1 5/6/1
f 10/9/1 7/7/1 8/8/1
f 9/10/1 10/9/1 8/8/1
f 14/11/1 11/12/1 12/13/1
f 13/14/1 14/11/1 12/13/1
f 16/15/1 14/11/1 13/14/1
f 15/16/1 16/15/1 13/14/1
f 17/17/1 16/15/1 15/16/1
f 18/18/1 17/17/1 15/16/1
f 20/19/1 17/17/1 18/18/1
f 19/20/1 20/19/1 18/18/1
f 28/12/1 30/13/1 27/11/1
f 29/14/1 27/11/1 30/13/1
f 26/15/1 27/11/1 29/14/1
f 25/16/1 26/15/1 29/14/1
f 23/21/1 26/15/1 25/16/1
f 24/22/1 23/21/1 25/16/1
f 22/19/1 23/21/1 24/22/1
f 21/20/1 22/19/1 24/22/1
# 24 triangles in group

# 24 triangles total

